# xmcd
#
# Track frame offsets:
#	150
#	18920
#	38410
#	68285
#	92910
#	109005
#	136220
#	158647
#	175577
#	200462
#
# Disc length: 3000 seconds
#
# Revision: 1
# Processed by: cddbd v1.4PL0 Copyright (c) Steve Scherf et al.
# Submitted via: EasyCDDAExtractor 5.1.0
#
DISCID=6c0bb60a
DTITLE=Various Artist - Noi Yeu Bat Tan
DYEAR=1900
DGENRE=Pop
TTITLE0=Y Lan - Mua Thu Chet
TTITLE1=Khanh Ha - Noi Niem
TTITLE2=Y Lan - Ao Dai Que Huong
TTITLE3=Khanh Ha - Tren Da Tinh Yeu
TTITLE4=Y Lan - Tinh Yeu Chon Dau
TTITLE5=Khanh Ha - Con Duong Tinh Ta Di
TTITLE6=Khanh Ha - Ngam Ngui
TTITLE7=Khanh Ha - Noi Yeu Bat Tan
TTITLE8=Y Lan - Nghin Trung Xa Canh
TTITLE9=Khanh Ha - Nua Hon Thuong Dau
EXTD=
EXTT0=
EXTT1=
EXTT2=
EXTT3=
EXTT4=
EXTT5=
EXTT6=
EXTT7=
EXTT8=
EXTT9=
PLAYORDER=
